<svg xmlns="http://www.w3.org/2000/svg" viewBox="58 54 2436 652" width="2436" height="652" role="img" aria-label="Huxridge Accountants and Tax Consultants">
<g fill="#121E39">
<g transform="translate(108,104) scale(0.643678)"><g transform="translate(0.000000,858.000000) scale(0.100000,-0.100000)"
 stroke="none">
<path d="M4172 8348 c-81 -77 -372 -365 -647 -639 -275 -274 -690 -686 -922
-916 -231 -230 -887 -883 -1457 -1451 l-1035 -1033 -6 -20 -7 -20 18 -27 c9
-15 149 -157 311 -317 162 -159 525 -519 806 -800 508 -505 655 -649 922 -900
76 -71 166 -157 199 -190 l61 -61 33 -13 32 -13 33 13 32 13 100 96 c55 52
140 131 189 175 154 140 302 283 596 575 396 393 788 778 904 885 l97 90 5 22
6 22 -7 22 -7 21 -377 379 c-207 209 -380 379 -384 379 -4 0 -22 -6 -40 -14
l-32 -13 -315 -313 c-173 -171 -369 -359 -435 -417 -66 -58 -139 -122 -163
-144 l-43 -39 -39 0 -39 0 -46 37 c-25 21 -126 114 -223 207 -97 93 -207 192
-243 222 -71 57 -109 98 -109 120 0 7 23 41 52 76 28 35 666 680 1418 1433
1346 1349 1561 1566 1616 1635 15 19 51 60 80 90 l53 55 11 28 10 29 -19 41
-19 42 -384 388 -384 387 -28 0 -27 0 -147 -142z M5319 7432 c-15 -9 -91 -75
-168 -147 -78 -71 -152 -136 -164 -145 -12 -9 -119 -112 -239 -230 -119 -118
-235 -232 -258 -252 l-42 -37 6 -27 7 -28 107 -110 c59 -61 150 -152 202 -203
357 -344 1107 -1083 1431 -1409 l385 -389 62 -78 c34 -43 62 -84 62 -91 0 -7
-13 -32 -28 -57 l-29 -44 -464 -466 c-655 -658 -1540 -1524 -1698 -1663 -121
-106 -163 -136 -192 -136 -5 0 -175 164 -377 365 l-367 366 -24 6 -24 6 -23
-9 -24 -9 -415 -414 -415 -414 0 -29 0 -29 672 -672 c370 -370 688 -685 708
-700 19 -16 93 -83 164 -150 71 -67 134 -125 140 -129 6 -4 22 -8 36 -8 l25 0
226 213 c125 117 379 365 565 551 187 186 403 397 482 468 129 118 896 869
1237 1213 77 78 208 205 290 282 83 78 435 425 783 771 l632 630 0 38 0 39
-994 990 c-1102 1097 -1220 1213 -1321 1305 -38 35 -213 203 -387 374 -174
171 -349 342 -387 379 l-70 68 -35 14 c-20 8 -39 15 -43 15 -4 0 -20 -8 -34
-18z M4674 5497 c-165 -166 -355 -359 -422 -429 l-122 -128 0 -35 0 -35 179
-182 c99 -101 267 -272 374 -380 l194 -198 25 0 25 0 94 88 c52 48 111 103
133 122 186 168 638 615 655 647 l12 23 -15 27 -15 28 -378 378 -379 377 -29
0 -30 0 -301 -303z"/>
</g></g>
<g transform="translate(818.705,-663.904) scale(1.107904)"><path d="M562 542Q562 571 556.5 586.0Q551 601 532.5 607.0Q514 613 476 613Q473 613 473.0 619.0Q473 625 476 625Q500 625 531.5 623.5Q563 622 602 622Q636 622 668.5 623.5Q701 625 725 625Q728 625 728.0 619.0Q728 613 725 613Q690 613 671.5 607.5Q653 602 647.0 587.5Q641 573 641 544V81Q641 52 647.0 37.0Q653 22 671.5 17.0Q690 12 725 12Q728 12 728.0 6.0Q728 0 725 0Q701 0 668.5 1.0Q636 2 602 2Q563 2 531.5 1.0Q500 0 476 0Q473 0 473.0 6.0Q473 12 476 12Q514 12 532.5 17.0Q551 22 556.5 37.0Q562 52 562 81ZM155 314V337H597V314ZM118 81V544Q118 573 112.0 587.5Q106 602 88.0 607.5Q70 613 35 613Q32 613 32.0 619.0Q32 625 35 625Q60 625 91.0 623.5Q122 622 156 622Q196 622 227.5 623.5Q259 625 284 625Q286 625 286.0 619.0Q286 613 284 613Q247 613 228.5 607.0Q210 601 203.5 586.0Q197 571 197 542V81Q197 52 203.0 37.0Q209 22 228.0 17.0Q247 12 284 12Q286 12 286.0 6.0Q286 0 284 0Q258 0 227.0 1.0Q196 2 156 2Q122 2 90.0 1.0Q58 0 33 0Q31 0 31.0 6.0Q31 12 33 12Q69 12 87.5 17.0Q106 22 112.0 37.0Q118 52 118 81Z" transform="translate(0.000,1000) scale(0.400000,-0.400000)"/>
<path d="M185 -9Q134 -9 104.5 23.5Q75 56 75 114V265Q75 303 68.5 320.0Q62 337 45 337Q32 337 14 328Q10 326 7.5 332.0Q5 338 9 339L127 394Q129 395 131 395Q135 395 139.0 392.0Q143 389 143 385V152Q143 94 163.5 66.5Q184 39 226 39Q262 39 297.5 60.0Q333 81 358 115L363 104Q321 48 277.5 19.5Q234 -9 185 -9ZM407 385V110Q407 76 414.5 61.0Q422 46 440 46Q449 46 460.5 49.5Q472 53 489 60Q493 62 495.5 56.5Q498 51 495 49L371 -10Q369 -11 366 -11Q358 -11 348.5 11.5Q339 34 339 76V265Q339 303 332.0 320.0Q325 337 309 337Q296 337 277 328Q274 326 271.5 332.0Q269 338 273 339L391 394Q393 395 395 395Q398 395 402.5 392.0Q407 389 407 385Z" transform="translate(304.400,1000) scale(0.400000,-0.400000)"/>
<path d="M256 0Q253 0 253.0 6.0Q253 12 256 12Q282 12 285.0 20.5Q288 29 274 51L106 303Q81 340 57.0 357.0Q33 374 15 374Q13 374 13.0 380.0Q13 386 15 386Q30 386 46.0 385.0Q62 384 77 384Q111 384 137.0 385.0Q163 386 184 386Q186 386 186.0 380.0Q186 374 184 374Q160 374 155.5 366.0Q151 358 166 335L333 83Q360 43 386.0 27.5Q412 12 430 12Q432 12 432.0 6.0Q432 0 430 0Q414 0 396.0 1.0Q378 2 363 2Q329 2 303.0 1.0Q277 0 256 0ZM10 0Q8 0 8.0 6.0Q8 12 10 12Q38 12 69.5 33.0Q101 54 129 92L205 197L218 185L149 85Q133 62 129.0 45.5Q125 29 137.0 20.5Q149 12 181 12Q184 12 184.0 6.0Q184 0 181 0Q158 0 136.5 1.0Q115 2 81 2Q58 2 44.0 1.0Q30 0 10 0ZM222 192 211 203 276 301Q302 338 297.0 356.0Q292 374 244 374Q242 374 242.0 380.0Q242 386 244 386Q268 386 289.5 385.0Q311 384 345 384Q368 384 382.0 385.0Q396 386 416 386Q418 386 418.0 380.0Q418 374 416 374Q389 374 357.5 354.0Q326 334 297 294Z" transform="translate(503.200,1000) scale(0.400000,-0.400000)"/>
<path d="M149 271 143 282Q181 328 206.0 352.0Q231 376 249.0 385.5Q267 395 283 395Q304 395 325.0 382.0Q346 369 346 349Q346 334 336.0 323.5Q326 313 309 313Q293 313 283.5 322.0Q274 331 264.5 339.5Q255 348 239 348Q231 348 221.0 343.0Q211 338 194.5 321.5Q178 305 149 271ZM43 0Q40 0 40.0 6.0Q40 12 43 12Q79 12 90.5 25.5Q102 39 102 81V276Q102 308 94.5 323.0Q87 338 69 338Q59 338 46.0 334.5Q33 331 16 324Q12 322 10.0 327.5Q8 333 11 335L134 394Q138 395 140 395Q149 395 160.0 373.0Q171 351 171 310V81Q171 53 178.5 38.0Q186 23 206.5 17.5Q227 12 266 12Q269 12 269.0 6.0Q269 0 266 0Q240 0 207.0 1.0Q174 2 137 2Q110 2 85.5 1.0Q61 0 43 0Z" transform="translate(678.800,1000) scale(0.400000,-0.400000)"/>
<path d="M49 0Q46 0 46.0 6.0Q46 12 49 12Q85 12 97.0 25.5Q109 39 109 81V265Q109 300 102.0 316.0Q95 332 77 332Q69 332 58.5 329.0Q48 326 34 319Q30 318 27.5 323.5Q25 329 29 331L165 394Q168 395 169 395Q172 395 175.5 392.0Q179 389 179 385Q179 376 178.0 346.0Q177 316 177 267V81Q177 39 188.5 25.5Q200 12 237 12Q240 12 240.0 6.0Q240 0 237 0Q219 0 194.5 1.0Q170 2 143 2Q116 2 92.0 1.0Q68 0 49 0ZM137 507Q114 507 100.5 519.5Q87 532 87 555Q87 577 100.5 589.0Q114 601 137 601Q159 601 171.5 589.0Q184 577 184 555Q184 507 137 507Z" transform="translate(826.400,1000) scale(0.400000,-0.400000)"/>
<path d="M191 -13Q149 -13 113.5 10.5Q78 34 56.5 77.0Q35 120 35 179Q35 238 56.5 279.5Q78 321 112.5 347.0Q147 373 187.0 386.0Q227 399 263 399Q299 399 329.5 388.0Q360 377 386 359L370 287Q347 328 317.0 352.5Q287 377 240 377Q182 377 146.5 336.0Q111 295 111 210Q111 153 127.5 112.0Q144 71 172.0 49.0Q200 27 235 27Q279 27 312.0 51.0Q345 75 375 109L384 101Q363 77 335.0 50.5Q307 24 271.5 5.5Q236 -13 191 -13ZM421 715V112Q421 77 429.0 61.5Q437 46 455 46Q464 46 476.5 48.5Q489 51 504 59Q508 61 510.5 55.5Q513 50 510 48L391 -9Q387 -11 384 -11Q372 -11 362.5 13.0Q353 37 353 81V594Q353 630 346.5 646.0Q340 662 322 662Q313 662 303.0 658.5Q293 655 278 648Q274 647 271.5 653.0Q269 659 272 660L405 724Q407 725 410 725Q413 725 417.0 722.0Q421 719 421 715Z" transform="translate(934.400,1000) scale(0.400000,-0.400000)"/>
<path d="M180 -281Q111 -281 70.5 -249.5Q30 -218 30 -170Q30 -127 65.0 -85.5Q100 -44 172 -2L183 -14Q159 -26 139.5 -41.5Q120 -57 108.5 -78.0Q97 -99 97 -130Q97 -168 113.5 -195.0Q130 -222 159.5 -236.0Q189 -250 228 -250Q290 -250 330.0 -215.5Q370 -181 370 -121Q370 -78 350.0 -59.5Q330 -41 295.0 -36.5Q260 -32 213 -32Q172 -31 136.5 -27.0Q101 -23 78.5 -7.5Q56 8 56 42Q56 77 78.5 104.5Q101 132 145 161L156 153Q133 136 123.0 120.5Q113 105 113 85Q113 62 127.5 50.0Q142 38 172.5 33.5Q203 29 252 29Q279 29 309.5 27.5Q340 26 367.5 17.0Q395 8 412.5 -13.5Q430 -35 430 -75Q430 -117 410.0 -154.0Q390 -191 355.0 -219.5Q320 -248 274.5 -264.5Q229 -281 180 -281ZM206 133Q158 133 123.5 151.5Q89 170 70.5 200.5Q52 231 52 265Q52 303 74.5 332.0Q97 361 134.5 377.0Q172 393 217 393Q268 393 301.5 374.5Q335 356 352.0 327.0Q369 298 369 266Q369 229 347.5 199.0Q326 169 289.0 151.0Q252 133 206 133ZM227 149Q255 149 275.0 170.5Q295 192 295 242Q295 286 280.0 316.0Q265 346 241.0 361.5Q217 377 190 377Q160 377 142.5 356.0Q125 335 125 290Q125 245 140.5 213.0Q156 181 179.5 165.0Q203 149 227 149ZM301 316 302 349Q334 371 363.5 383.0Q393 395 429 395Q432 395 433.5 387.5Q435 380 435 371Q435 359 432.0 345.0Q429 331 425 333Q413 339 395.0 344.0Q377 349 356 349Q343 349 332.0 347.0Q321 345 309 341Z" transform="translate(1139.200,1000) scale(0.400000,-0.400000)"/>
<path d="M224 -12Q162 -12 120.0 15.5Q78 43 56.5 87.0Q35 131 35 181Q35 241 63.5 289.5Q92 338 141.0 366.5Q190 395 250 395Q308 395 339.5 366.0Q371 337 371 281Q371 268 368.5 260.5Q366 253 359 253H290Q294 313 274.5 344.0Q255 375 216 375Q167 375 139.5 333.0Q112 291 112 220Q112 163 130.0 119.5Q148 76 183.0 52.0Q218 28 268 28Q301 28 322.5 37.0Q344 46 367 59Q369 61 372.5 56.5Q376 52 374 49Q338 16 301.0 2.0Q264 -12 224 -12ZM89 252 88 267 312 271V253Z" transform="translate(1318.000,1000) scale(0.400000,-0.400000)"/></g>
<rect x="832" y="491" width="1612" height="6"/>
<g transform="translate(836.000,-128.086) scale(0.732086)"><path d="M-1 0 316 700H415L733 0H628L345 644H385L102 0ZM134 175 161 255H555L584 175Z" transform="translate(0.000,1000) scale(0.100000,-0.100000)"/>
<path d="M418 -8Q338 -8 270.5 18.5Q203 45 153.5 93.5Q104 142 76.0 207.0Q48 272 48 350Q48 428 76.0 493.0Q104 558 154.0 606.5Q204 655 271.5 681.5Q339 708 419 708Q500 708 568.5 680.5Q637 653 685 599L620 536Q580 578 530.0 598.5Q480 619 423 619Q364 619 313.5 599.0Q263 579 226.0 543.0Q189 507 168.5 457.5Q148 408 148 350Q148 292 168.5 242.5Q189 193 226.0 157.0Q263 121 313.5 101.0Q364 81 423 81Q480 81 530.0 101.5Q580 122 620 165L685 102Q637 48 568.5 20.0Q500 -8 418 -8Z" transform="translate(83.300,1000) scale(0.100000,-0.100000)"/>
<path d="M418 -8Q338 -8 270.5 18.5Q203 45 153.5 93.5Q104 142 76.0 207.0Q48 272 48 350Q48 428 76.0 493.0Q104 558 154.0 606.5Q204 655 271.5 681.5Q339 708 419 708Q500 708 568.5 680.5Q637 653 685 599L620 536Q580 578 530.0 598.5Q480 619 423 619Q364 619 313.5 599.0Q263 579 226.0 543.0Q189 507 168.5 457.5Q148 408 148 350Q148 292 168.5 242.5Q189 193 226.0 157.0Q263 121 313.5 101.0Q364 81 423 81Q480 81 530.0 101.5Q580 122 620 165L685 102Q637 48 568.5 20.0Q500 -8 418 -8Z" transform="translate(164.700,1000) scale(0.100000,-0.100000)"/>
<path d="M421 -8Q341 -8 272.5 19.0Q204 46 154.0 94.5Q104 143 76.0 208.0Q48 273 48 350Q48 427 76.0 492.0Q104 557 154.0 605.5Q204 654 272.0 681.0Q340 708 421 708Q501 708 568.5 681.5Q636 655 686.5 606.5Q737 558 764.5 493.0Q792 428 792 350Q792 272 764.5 207.0Q737 142 686.5 93.5Q636 45 568.5 18.5Q501 -8 421 -8ZM421 81Q479 81 528.5 101.0Q578 121 614.5 157.5Q651 194 671.5 243.0Q692 292 692 350Q692 408 671.5 457.0Q651 506 614.5 542.5Q578 579 528.5 599.0Q479 619 421 619Q362 619 312.5 599.0Q263 579 226.0 542.5Q189 506 168.5 457.0Q148 408 148 350Q148 292 168.5 243.0Q189 194 226.0 157.5Q263 121 312.5 101.0Q362 81 421 81Z" transform="translate(246.100,1000) scale(0.100000,-0.100000)"/>
<path d="M395 -8Q257 -8 178.0 71.0Q99 150 99 302V700H199V306Q199 189 250.5 135.0Q302 81 396 81Q491 81 542.5 135.0Q594 189 594 306V700H691V302Q691 150 612.5 71.0Q534 -8 395 -8Z" transform="translate(340.200,1000) scale(0.100000,-0.100000)"/>
<path d="M105 0V700H187L650 125H607V700H707V0H625L162 575H205V0Z" transform="translate(429.400,1000) scale(0.100000,-0.100000)"/>
<path d="M244 0V613H4V700H583V613H343V0Z" transform="translate(520.700,1000) scale(0.100000,-0.100000)"/>
<path d="M-1 0 316 700H415L733 0H628L345 644H385L102 0ZM134 175 161 255H555L584 175Z" transform="translate(589.500,1000) scale(0.100000,-0.100000)"/>
<path d="M105 0V700H187L650 125H607V700H707V0H625L162 575H205V0Z" transform="translate(672.800,1000) scale(0.100000,-0.100000)"/>
<path d="M244 0V613H4V700H583V613H343V0Z" transform="translate(764.100,1000) scale(0.100000,-0.100000)"/>
<path d="M309 -8Q229 -8 156.0 16.5Q83 41 41 80L78 158Q118 123 180.0 100.0Q242 77 309 77Q370 77 408.0 91.0Q446 105 464.0 129.5Q482 154 482 185Q482 221 458.5 243.0Q435 265 397.5 278.5Q360 292 315.0 302.0Q270 312 224.5 325.5Q179 339 141.5 360.0Q104 381 81.0 416.5Q58 452 58 508Q58 562 86.5 607.5Q115 653 174.5 680.5Q234 708 326 708Q387 708 447.0 692.0Q507 676 551 646L518 566Q473 596 423.0 609.5Q373 623 326 623Q267 623 229.0 608.0Q191 593 173.5 568.0Q156 543 156 512Q156 475 179.5 453.0Q203 431 240.5 418.0Q278 405 323.0 394.5Q368 384 413.5 371.0Q459 358 496.5 337.0Q534 316 557.0 281.0Q580 246 580 191Q580 138 551.0 92.5Q522 47 461.5 19.5Q401 -8 309 -8Z" transform="translate(832.900,1000) scale(0.100000,-0.100000)"/>
<path d="" transform="translate(905.100,1000) scale(0.100000,-0.100000)"/>
<path d="M617 -11 224 380Q189 415 169.0 442.5Q149 470 140.0 496.0Q131 522 131 549Q131 596 154.5 631.5Q178 667 220.5 686.5Q263 706 320 706Q373 706 412.0 688.5Q451 671 472.5 638.5Q494 606 494 560Q494 520 474.5 486.0Q455 452 412.0 420.0Q369 388 296 351Q236 320 202.0 293.5Q168 267 153.5 241.0Q139 215 139 184Q139 151 158.5 125.5Q178 100 213.5 86.0Q249 72 296 72Q363 72 417.0 101.0Q471 130 507.5 188.0Q544 246 561 332L638 307Q618 206 569.5 136.0Q521 66 450.0 29.0Q379 -8 290 -8Q219 -8 164.0 15.0Q109 38 77.0 79.0Q45 120 45 174Q45 221 66.0 260.0Q87 299 133.0 335.5Q179 372 254 411Q315 443 349.5 467.0Q384 491 398.5 512.5Q413 534 413 559Q413 593 389.0 614.5Q365 636 320 636Q273 636 246.5 612.5Q220 589 220 551Q220 532 226.5 514.5Q233 497 250.5 475.5Q268 454 301 421L671 53Z" transform="translate(942.100,1000) scale(0.100000,-0.100000)"/>
<path d="" transform="translate(1020.800,1000) scale(0.100000,-0.100000)"/>
<path d="M244 0V613H4V700H583V613H343V0Z" transform="translate(1057.800,1000) scale(0.100000,-0.100000)"/>
<path d="M-1 0 316 700H415L733 0H628L345 644H385L102 0ZM134 175 161 255H555L584 175Z" transform="translate(1126.600,1000) scale(0.100000,-0.100000)"/>
<path d="M13 0 304 397V320L29 700H143L361 401L316 400L533 700H642L369 326V398L660 0H545L313 319H357L128 0Z" transform="translate(1209.900,1000) scale(0.100000,-0.100000)"/>
<path d="" transform="translate(1287.300,1000) scale(0.100000,-0.100000)"/>
<path d="M418 -8Q338 -8 270.5 18.5Q203 45 153.5 93.5Q104 142 76.0 207.0Q48 272 48 350Q48 428 76.0 493.0Q104 558 154.0 606.5Q204 655 271.5 681.5Q339 708 419 708Q500 708 568.5 680.5Q637 653 685 599L620 536Q580 578 530.0 598.5Q480 619 423 619Q364 619 313.5 599.0Q263 579 226.0 543.0Q189 507 168.5 457.5Q148 408 148 350Q148 292 168.5 242.5Q189 193 226.0 157.0Q263 121 313.5 101.0Q364 81 423 81Q480 81 530.0 101.5Q580 122 620 165L685 102Q637 48 568.5 20.0Q500 -8 418 -8Z" transform="translate(1324.300,1000) scale(0.100000,-0.100000)"/>
<path d="M421 -8Q341 -8 272.5 19.0Q204 46 154.0 94.5Q104 143 76.0 208.0Q48 273 48 350Q48 427 76.0 492.0Q104 557 154.0 605.5Q204 654 272.0 681.0Q340 708 421 708Q501 708 568.5 681.5Q636 655 686.5 606.5Q737 558 764.5 493.0Q792 428 792 350Q792 272 764.5 207.0Q737 142 686.5 93.5Q636 45 568.5 18.5Q501 -8 421 -8ZM421 81Q479 81 528.5 101.0Q578 121 614.5 157.5Q651 194 671.5 243.0Q692 292 692 350Q692 408 671.5 457.0Q651 506 614.5 542.5Q578 579 528.5 599.0Q479 619 421 619Q362 619 312.5 599.0Q263 579 226.0 542.5Q189 506 168.5 457.0Q148 408 148 350Q148 292 168.5 243.0Q189 194 226.0 157.5Q263 121 312.5 101.0Q362 81 421 81Z" transform="translate(1405.700,1000) scale(0.100000,-0.100000)"/>
<path d="M105 0V700H187L650 125H607V700H707V0H625L162 575H205V0Z" transform="translate(1499.800,1000) scale(0.100000,-0.100000)"/>
<path d="M309 -8Q229 -8 156.0 16.5Q83 41 41 80L78 158Q118 123 180.0 100.0Q242 77 309 77Q370 77 408.0 91.0Q446 105 464.0 129.5Q482 154 482 185Q482 221 458.5 243.0Q435 265 397.5 278.5Q360 292 315.0 302.0Q270 312 224.5 325.5Q179 339 141.5 360.0Q104 381 81.0 416.5Q58 452 58 508Q58 562 86.5 607.5Q115 653 174.5 680.5Q234 708 326 708Q387 708 447.0 692.0Q507 676 551 646L518 566Q473 596 423.0 609.5Q373 623 326 623Q267 623 229.0 608.0Q191 593 173.5 568.0Q156 543 156 512Q156 475 179.5 453.0Q203 431 240.5 418.0Q278 405 323.0 394.5Q368 384 413.5 371.0Q459 358 496.5 337.0Q534 316 557.0 281.0Q580 246 580 191Q580 138 551.0 92.5Q522 47 461.5 19.5Q401 -8 309 -8Z" transform="translate(1591.100,1000) scale(0.100000,-0.100000)"/>
<path d="M395 -8Q257 -8 178.0 71.0Q99 150 99 302V700H199V306Q199 189 250.5 135.0Q302 81 396 81Q491 81 542.5 135.0Q594 189 594 306V700H691V302Q691 150 612.5 71.0Q534 -8 395 -8Z" transform="translate(1663.300,1000) scale(0.100000,-0.100000)"/>
<path d="M105 0V700H205V87H584V0Z" transform="translate(1752.500,1000) scale(0.100000,-0.100000)"/>
<path d="M244 0V613H4V700H583V613H343V0Z" transform="translate(1822.000,1000) scale(0.100000,-0.100000)"/>
<path d="M-1 0 316 700H415L733 0H628L345 644H385L102 0ZM134 175 161 255H555L584 175Z" transform="translate(1890.800,1000) scale(0.100000,-0.100000)"/>
<path d="M105 0V700H187L650 125H607V700H707V0H625L162 575H205V0Z" transform="translate(1974.100,1000) scale(0.100000,-0.100000)"/>
<path d="M244 0V613H4V700H583V613H343V0Z" transform="translate(2065.400,1000) scale(0.100000,-0.100000)"/>
<path d="M309 -8Q229 -8 156.0 16.5Q83 41 41 80L78 158Q118 123 180.0 100.0Q242 77 309 77Q370 77 408.0 91.0Q446 105 464.0 129.5Q482 154 482 185Q482 221 458.5 243.0Q435 265 397.5 278.5Q360 292 315.0 302.0Q270 312 224.5 325.5Q179 339 141.5 360.0Q104 381 81.0 416.5Q58 452 58 508Q58 562 86.5 607.5Q115 653 174.5 680.5Q234 708 326 708Q387 708 447.0 692.0Q507 676 551 646L518 566Q473 596 423.0 609.5Q373 623 326 623Q267 623 229.0 608.0Q191 593 173.5 568.0Q156 543 156 512Q156 475 179.5 453.0Q203 431 240.5 418.0Q278 405 323.0 394.5Q368 384 413.5 371.0Q459 358 496.5 337.0Q534 316 557.0 281.0Q580 246 580 191Q580 138 551.0 92.5Q522 47 461.5 19.5Q401 -8 309 -8Z" transform="translate(2134.200,1000) scale(0.100000,-0.100000)"/></g>
</g></svg>